<?xml version="1.0" standalone="no"?><!DOCTYPE svg PUBLIC "-//W3C//DTD SVG 1.1//EN" "http://www.w3.org/Graphics/SVG/1.1/DTD/svg11.dtd"><svg t="1558063953845" class="icon" style="" viewBox="0 0 1024 1024" version="1.1" xmlns="http://www.w3.org/2000/svg" p-id="4308" xmlns:xlink="http://www.w3.org/1999/xlink" width="20" height="20"><defs><style type="text/css"></style></defs><path d="M512 512m-512 0a512 512 0 1 0 1024 0 512 512 0 1 0-1024 0Z" fill="#FEC43C" p-id="4309"></path><path d="M1013.76 408.576C965.632 175.104 759.808 0 512 0 229.376 0 0 229.376 0 512c0 123.904 44.032 236.544 116.736 324.608C203.776 884.736 303.104 911.36 409.6 911.36c301.056 0 550.912-217.088 604.16-502.784z" fill="#FFD73A" p-id="4310"></path><path d="M296.96 337.92m-92.16 0a92.16 92.16 0 1 0 184.32 0 92.16 92.16 0 1 0-184.32 0Z" fill="#873A18" p-id="4311"></path><path d="M727.04 337.92m-92.16 0a92.16 92.16 0 1 0 184.32 0 92.16 92.16 0 1 0-184.32 0Z" fill="#873A18" p-id="4312"></path><path d="M512 778.24c-134.144 0-245.76-97.28-266.24-225.28-3.072-21.504 13.312-40.96 35.84-40.96h460.8c22.528 0 38.912 19.456 35.84 40.96-20.48 128-132.096 225.28-266.24 225.28z" fill="#873A18" p-id="4313"></path><path d="M742.4 512h-460.8c-22.528 0-38.912 19.456-35.84 40.96 1.024 7.168 2.048 14.336 4.096 21.504h523.264c2.048-7.168 3.072-14.336 4.096-21.504 4.096-21.504-13.312-40.96-34.816-40.96z" fill="#FFFFFF" p-id="4314"></path><path d="M587.776 635.904c-30.72 0-58.368 15.36-75.776 38.912-16.384-23.552-44.032-38.912-75.776-38.912-48.128 0-88.064 36.864-92.16 83.968C390.144 756.736 448.512 778.24 512 778.24c63.488 0 121.856-21.504 167.936-58.368-4.096-47.104-44.032-83.968-92.16-83.968z" fill="#F44444" p-id="4315"></path><path d="M674.816 658.432c-19.456-19.456-46.08-31.744-75.776-31.744-35.84 0-67.584 17.408-87.04 45.056-13.312-18.432-31.744-32.768-54.272-39.936-37.888-12.288-79.872-2.048-108.544 26.624-19.456 18.432-29.696 43.008-30.72 68.608v82.944C318.464 916.48 404.48 1003.52 512 1003.52c106.496 0 193.536-87.04 193.536-193.536v-65.536c2.048-31.744-7.168-63.488-30.72-86.016z" fill="#F44444" p-id="4316"></path><path d="M512 849.92c11.264 0 20.48-9.216 20.48-20.48V650.24c-8.192 6.144-14.336 13.312-20.48 21.504-6.144-8.192-12.288-15.36-20.48-21.504V829.44c0 11.264 9.216 20.48 20.48 20.48z" fill="#C83C3F" p-id="4317"></path></svg>